<svg width="1600" height="900" viewBox="0 0 1600 900" xmlns="http://www.w3.org/2000/svg">
  <rect width="1600" height="900" fill="transparent"/>
  <path d="M0 900 L0 690 L50 620 L65 690 L115 590 L136 690 L180 605 L205 690 L248 615 L275 690 L335 570 L360 690 L415 612 L440 690 L520 560 L545 690 L618 606 L645 690 L705 580 L735 690 L790 600 L818 690 L868 560 L902 690 L960 610 L994 690 L1042 565 L1078 690 L1135 605 L1168 690 L1240 540 L1278 690 L1338 610 L1370 690 L1428 575 L1460 690 L1518 598 L1550 690 L1600 620 L1600 900 Z" fill="#3f151f"/>
</svg>
