<?xml version="1.0" encoding="UTF-8"?>
<svg version="1.1" xmlns="http://www.w3.org/2000/svg" width="192" height="192">
<path d="M0 0 C1.63187759 -0.0129007 1.63187759 -0.0129007 3.29672241 -0.02606201 C5.09519119 -0.03245193 5.09519119 -0.03245193 6.92999268 -0.03897095 C8.18861115 -0.04714844 9.44722961 -0.05532593 10.74398804 -0.06375122 C14.92478289 -0.08997587 19.10558777 -0.1052806 23.28643799 -0.11953735 C24.72574113 -0.1248971 26.16504421 -0.13027461 27.60434723 -0.13566971 C33.59210212 -0.15730027 39.57985431 -0.17603637 45.5676384 -0.1872921 C54.14779126 -0.20352697 62.72749093 -0.23669083 71.30747294 -0.29369295 C77.34067819 -0.33240766 83.37376232 -0.35192664 89.40708852 -0.35721266 C93.01021269 -0.36086449 96.61285357 -0.37286627 100.2158432 -0.4053154 C104.2380207 -0.44101991 108.25922604 -0.43702141 112.28155518 -0.42959595 C114.06787857 -0.45420395 114.06787857 -0.45420395 115.89028931 -0.47930908 C124.89104771 -0.41119336 124.89104771 -0.41119336 128.58850098 2.56536865 C131.70080951 6.10495089 131.99140813 7.68155093 132.01846313 12.28933716 C132.0270636 13.37725555 132.03566406 14.46517395 132.04452515 15.58605957 C132.05091507 17.38452835 132.05091507 17.38452835 132.05743408 19.21932983 C132.06970032 21.10725754 132.06970032 21.10725754 132.08221436 23.0333252 C132.10843901 27.21412004 132.12374373 31.39492493 132.13800049 35.57577515 C132.14336024 37.01507829 132.14873775 38.45438137 132.15413284 39.89368439 C132.1757634 45.88143928 132.19449951 51.86919147 132.20575523 57.85697556 C132.22199011 66.43712841 132.25515396 75.01682809 132.31215608 83.5968101 C132.35087079 89.63001535 132.37038977 95.66309948 132.3756758 101.69642568 C132.37932763 105.29954985 132.39132941 108.90219073 132.42377853 112.50518036 C132.45948305 116.52735785 132.45548455 120.5485632 132.44805908 124.57089233 C132.46446442 125.7617746 132.48086975 126.95265686 132.49777222 128.17962646 C132.4296565 137.18038487 132.4296565 137.18038487 129.45309448 140.87783813 C125.91351225 143.99014667 124.33691221 144.28074528 119.72912598 144.30780029 C118.64120758 144.31640076 117.55328918 144.32500122 116.43240356 144.3338623 C115.23342438 144.33812225 114.03444519 144.3423822 112.7991333 144.34677124 C111.54051483 144.35494873 110.28189636 144.36312622 108.98513794 144.37155151 C104.80434309 144.39777617 100.62353821 144.41308089 96.44268799 144.42733765 C95.00338484 144.4326974 93.56408176 144.4380749 92.12477875 144.44347 C86.13702385 144.46510056 80.14927166 144.48383666 74.16148758 144.49509239 C65.58133472 144.51132727 57.00163504 144.54449112 48.42165303 144.60149324 C42.38844778 144.64020795 36.35536366 144.65972693 30.32203746 144.66501296 C26.71891329 144.66866479 23.1162724 144.68066657 19.51328278 144.71311569 C15.49110528 144.7488202 11.46989993 144.7448217 7.4475708 144.73739624 C6.25668854 144.75380157 5.06580627 144.77020691 3.83883667 144.78710938 C-5.16192173 144.71899366 -5.16192173 144.71899366 -8.859375 141.74243164 C-11.97168354 138.2028494 -12.26228215 136.62624937 -12.28933716 132.01846313 C-12.29793762 130.93054474 -12.30653809 129.84262634 -12.31539917 128.72174072 C-12.31965912 127.52276154 -12.32391907 126.32378235 -12.32830811 125.08847046 C-12.3364856 123.82985199 -12.34466309 122.57123352 -12.35308838 121.2744751 C-12.37931303 117.09368025 -12.39461775 112.91287537 -12.40887451 108.73202515 C-12.41423426 107.292722 -12.41961177 105.85341892 -12.42500687 104.41411591 C-12.44663743 98.42636101 -12.46537353 92.43860882 -12.47662926 86.45082474 C-12.49286413 77.87067188 -12.52602798 69.2909722 -12.5830301 60.71099019 C-12.62174482 54.67778494 -12.6412638 48.64470082 -12.64654982 42.61137462 C-12.65020165 39.00825045 -12.66220343 35.40560956 -12.69465256 31.80261993 C-12.73035707 27.78044244 -12.72635857 23.75923709 -12.71893311 19.73690796 C-12.73533844 18.5460257 -12.75174377 17.35514343 -12.76864624 16.12817383 C-12.70053052 7.12741542 -12.70053052 7.12741542 -9.72396851 3.42996216 C-6.18438627 0.31765362 -4.60778623 0.02705501 0 0 Z " fill="#FF9800" transform="translate(36.13543701171875,23.846099853515625)"/>
<path d="M0 0 C5.67476113 1.96434039 9.31400331 5.62800662 12 11 C12.59057744 16.67862925 12.29370905 21.16922672 9 26 C4.99653611 30.03627917 1.41408246 32.12458106 -4.3125 32.3125 C-8.94226662 32.25237316 -11.4369151 31.06591027 -15 28 C-19.3022759 23.23261319 -20.36282503 19.56252705 -20.28125 13.28125 C-19.69180611 8.50020514 -16.85179203 5.75038822 -13.375 2.6875 C-8.92314854 -0.47565762 -5.3540278 -0.48837416 0 0 Z " fill="#FFFCF9" transform="translate(72,124)"/>
<path d="M0 0 C15.84 0 31.68 0 48 0 C48 3.96 48 7.92 48 12 C32.16 12 16.32 12 0 12 C0 8.04 0 4.08 0 0 Z " fill="#FFFFFF" transform="translate(100,124)"/>
<path d="M0 0 C15.84 0 31.68 0 48 0 C48 3.96 48 7.92 48 12 C32.16 12 16.32 12 0 12 C0 8.04 0 4.08 0 0 Z " fill="#FFFFFF" transform="translate(100,104)"/>
<path d="M0 0 C15.84 0 31.68 0 48 0 C48 3.96 48 7.92 48 12 C32.16 12 16.32 12 0 12 C0 8.04 0 4.08 0 0 Z " fill="#FFFFFF" transform="translate(44,104)"/>
<path d="M0 0 C15.84 0 31.68 0 48 0 C48 3.96 48 7.92 48 12 C32.16 12 16.32 12 0 12 C0 8.04 0 4.08 0 0 Z " fill="#FFFFFF" transform="translate(100,84)"/>
<path d="M0 0 C15.84 0 31.68 0 48 0 C48 3.96 48 7.92 48 12 C32.16 12 16.32 12 0 12 C0 8.04 0 4.08 0 0 Z " fill="#FFFFFF" transform="translate(44,84)"/>
<path d="M0 0 C15.84 0 31.68 0 48 0 C48 3.96 48 7.92 48 12 C32.16 12 16.32 12 0 12 C0 8.04 0 4.08 0 0 Z " fill="#FFFFFF" transform="translate(100,64)"/>
<path d="M0 0 C15.84 0 31.68 0 48 0 C48 3.96 48 7.92 48 12 C32.16 12 16.32 12 0 12 C0 8.04 0 4.08 0 0 Z " fill="#FFFFFF" transform="translate(44,64)"/>
<path d="M0 0 C15.84 0 31.68 0 48 0 C48 3.96 48 7.92 48 12 C32.16 12 16.32 12 0 12 C0 8.04 0 4.08 0 0 Z " fill="#FFFFFF" transform="translate(100,44)"/>
<path d="M0 0 C15.84 0 31.68 0 48 0 C48 3.96 48 7.92 48 12 C32.16 12 16.32 12 0 12 C0 8.04 0 4.08 0 0 Z " fill="#FFFFFF" transform="translate(44,44)"/>
</svg>
